<?xml version="1.0" encoding="utf-8"?>
<!-- Generator: Adobe Illustrator 16.0.0, SVG Export Plug-In . SVG Version: 6.00 Build 0)  -->
<!DOCTYPE svg PUBLIC "-//W3C//DTD SVG 1.1//EN" "http://www.w3.org/Graphics/SVG/1.1/DTD/svg11.dtd">
<svg version="1.1" id="Calque_1" xmlns="http://www.w3.org/2000/svg" xmlns:xlink="http://www.w3.org/1999/xlink" x="0px" y="0px"
	 width="165.751px" height="103.348px" viewBox="0 0 165.751 103.348" enable-background="new 0 0 165.751 103.348"
	 xml:space="preserve">
<path fill="#F47B20" d="M51.562,90.82c0-1.717,0-5.42,0.527-8.859H51.96c-4.107,5.818-10.98,10.315-21.035,10.315
	c-14.543,0-19.441-9.519-19.441-20.769V43.072c-3.17-0.527-7.535-1.055-11.373-1.318V26.013c11.637-1.192,23.807-1.588,35.449-1.192
	v41.666c0,3.308,0.92,5.42,3.703,5.42c5.291,0,10.313-7.667,10.313-14.944V24.955h24.076v47.613c3.17,0.53,7.667,1.058,11.508,1.321
	v17.156C74.179,92.232,62.407,91.222,51.562,90.82L51.562,90.82z"/>
<path fill="#FFFFFF" stroke="#F47B20" stroke-width="1.5" d="M126.386,27.604c0,5.153-3.574,8.461-11.244,8.461
	c-2.115,0-3.835,0-5.294-0.129V20.856c2.112-0.135,4.233-0.267,7.014-0.267C122.677,20.59,126.386,22.969,126.386,27.604
	L126.386,27.604z M153.896,62.121c0-8.596-5.162-16.664-12.832-19.31V42.41c6.876-3.568,11.502-10.711,11.502-18.647
	c0-15.604-12.431-23.013-31.734-23.013c-11.109,0-26.593,0.264-35.578,0.797v89.145c15.076,0,25.389,0.264,30.814,0.264
	C141.594,90.955,153.896,78.258,153.896,62.121L153.896,62.121z M127.306,62.385c0,5.555-4.494,8.464-11.109,8.464
	c-2.115,0-4.764-0.132-6.349-0.264V54.316c1.459-0.132,5.429-0.132,6.349-0.132C123.872,54.185,127.306,57.753,127.306,62.385
	L127.306,62.385z"/>
<rect y="90.645" fill-rule="evenodd" clip-rule="evenodd" fill="#F47B20" width="165.751" height="12.703"/>
<path fill="#FFFFFF" d="M13.679,99.902c-1.811,0-2.218-0.986-2.218-2.083v-3.748h1.105v3.681c0,0.722,0.238,1.232,1.19,1.232
	c0.85,0,1.207-0.357,1.207-1.335v-3.578h1.096v3.511C16.059,99.146,15.192,99.902,13.679,99.902z"/>
<path fill="#FFFFFF" d="M22.391,99.809l-1.683-2.898c-0.247-0.434-0.451-0.858-0.621-1.232c0.034,0.493,0.051,1.394,0.051,2.082
	v2.049h-1.071v-5.737h1.437l1.598,2.736c0.264,0.442,0.493,0.918,0.706,1.352c-0.042-0.577-0.06-1.598-0.06-2.303v-1.785h1.071
	v5.737H22.391z"/>
<path fill="#FFFFFF" d="M26.869,99.809v-5.737h1.105v5.737H26.869z"/>
<path fill="#FFFFFF" d="M33.567,99.809h-1.275l-1.998-5.737h1.207l1.114,3.357c0.11,0.323,0.238,0.705,0.34,1.122h0.017
	c0.085-0.392,0.178-0.706,0.34-1.19l1.131-3.289h1.13L33.567,99.809z"/>
<path fill="#FFFFFF" d="M37.901,99.809v-5.737h3.12v0.926h-2.015v1.411h1.913v0.901h-1.913v1.556h2.015v0.943H37.901z"/>
<path fill="#FFFFFF" d="M46.538,99.809l-1.598-2.371h-0.042v2.371h-1.105v-5.737c0.451-0.025,0.986-0.034,1.649-0.034
	c1.267,0,2.083,0.442,2.083,1.615c0,0.85-0.595,1.462-1.462,1.598c0.162,0.213,0.323,0.434,0.467,0.629l1.377,1.93H46.538z
	 M45.331,94.938c-0.162,0-0.323,0.008-0.434,0.025v1.657c0.077,0.009,0.229,0.017,0.399,0.017c0.663,0,1.071-0.34,1.071-0.875
	C46.368,95.21,46.027,94.938,45.331,94.938z"/>
<path fill="#FFFFFF" d="M51.355,99.902c-0.408,0-0.816-0.043-1.173-0.137l0.068-1.028c0.323,0.11,0.782,0.204,1.199,0.204
	c0.561,0,0.995-0.229,0.995-0.756c0-1.097-2.406-0.596-2.406-2.482c0-1.021,0.808-1.726,2.185-1.726
	c0.323,0,0.697,0.042,1.037,0.102l-0.06,0.97c-0.323-0.094-0.68-0.153-1.028-0.153c-0.638,0-0.96,0.289-0.96,0.697
	c0,1.028,2.414,0.646,2.414,2.439C53.625,99.111,52.766,99.902,51.355,99.902z"/>
<path fill="#FFFFFF" d="M56.268,99.809v-5.737h1.105v5.737H56.268z"/>
<path fill="#FFFFFF" d="M62.344,95.015v4.794h-1.105v-4.794h-1.487v-0.943h4.08v0.943H62.344z"/>
<path fill="#FFFFFF" d="M68.983,92.89l-0.451-0.748l-1.487,0.935l0.374,0.621L68.983,92.89z M69.374,99.809v-0.943h-2.015V97.31
	h1.913v-0.901h-1.913v-1.411h2.015v-0.926h-3.12v5.737H69.374z"/>
<path fill="#FFFFFF" d="M79.268,96.927c0,1.36-0.782,1.973-1.861,1.973c-0.221,0-0.451-0.018-0.604-0.043v-3.867
	c0.179-0.018,0.417-0.025,0.671-0.025C78.783,94.964,79.268,95.694,79.268,96.927z M80.458,96.842c0-2.015-1.131-2.805-2.907-2.805
	c-0.706,0-1.402,0.025-1.853,0.042V99.8c0.484,0.018,1.003,0.043,1.598,0.043C79.166,99.843,80.458,98.814,80.458,96.842z"/>
<path fill="#FFFFFF" d="M83.067,99.809v-5.737h3.119v0.926h-2.014v1.411h1.913v0.901h-1.913v1.556h2.014v0.943H83.067z"/>
<path fill="#FFFFFF" d="M95.214,95.635c0,0.511-0.391,0.816-1.148,0.816c-0.178,0-0.314,0-0.449-0.009v-1.496
	c0.195-0.008,0.416-0.017,0.645-0.017C94.958,94.93,95.214,95.21,95.214,95.635z M96.489,98.041c0-0.578-0.34-1.14-1.021-1.284
	V96.74c0.545-0.213,0.91-0.714,0.91-1.283c0-0.919-0.688-1.42-1.93-1.42c-0.705,0-1.453,0.017-1.938,0.042v5.729
	c0.723,0,1.326,0.017,1.674,0.017C95.919,99.825,96.489,98.874,96.489,98.041z M95.308,98.066c0,0.519-0.365,0.858-1.088,0.858
	c-0.256,0-0.469-0.018-0.604-0.034v-1.606c0.119-0.009,0.398-0.009,0.484-0.009C94.823,97.275,95.308,97.505,95.308,98.066z"/>
<path fill="#FFFFFF" d="M103.101,96.944c0,1.377-0.799,1.955-1.547,1.955c-1.029,0-1.504-0.791-1.504-2.007
	c0-1.292,0.73-1.921,1.521-1.921C102.556,94.972,103.101,95.669,103.101,96.944z M104.282,96.859c0-1.964-1.08-2.882-2.609-2.882
	c-1.539,0-2.805,1.139-2.805,3.034c0,1.777,0.857,2.891,2.609,2.891C103.032,99.902,104.282,98.755,104.282,96.859z"/>
<path fill="#FFFFFF" d="M109.075,99.902c-1.811,0-2.219-0.986-2.219-2.083v-3.748h1.105v3.681c0,0.722,0.238,1.232,1.191,1.232
	c0.85,0,1.207-0.357,1.207-1.335v-3.578h1.096v3.511C111.456,99.146,110.589,99.902,109.075,99.902z"/>
<path fill="#FFFFFF" d="M117.04,95.763c0,0.535-0.408,0.875-1.072,0.875c-0.17,0-0.322-0.008-0.398-0.017v-1.657
	c0.109-0.018,0.271-0.025,0.434-0.025C116.7,94.938,117.04,95.21,117.04,95.763z M118.579,99.809l-1.379-1.93
	c-0.143-0.195-0.305-0.416-0.467-0.629c0.867-0.136,1.463-0.748,1.463-1.598c0-1.173-0.816-1.615-2.084-1.615
	c-0.662,0-1.197,0.009-1.648,0.034v5.737h1.105v-2.371h0.043l1.598,2.371H118.579z"/>
<path fill="#FFFFFF" d="M125.292,95.261c-0.459-0.178-0.986-0.289-1.521-0.289c-1.131,0-1.945,0.714-1.945,1.998
	c0,1.216,0.662,1.93,1.826,1.93c0.273,0,0.51-0.034,0.732-0.103V96.8h1.104v2.736c-0.568,0.229-1.273,0.357-1.963,0.357
	c-1.818,0-2.898-1.071-2.898-2.822c0-1.802,1.225-3.085,3.213-3.085c0.57,0,1.131,0.102,1.623,0.246L125.292,95.261z"/>
<path fill="#FFFFFF" d="M132.271,96.944c0,1.377-0.799,1.955-1.547,1.955c-1.027,0-1.504-0.791-1.504-2.007
	c0-1.292,0.73-1.921,1.521-1.921C131.728,94.972,132.271,95.669,132.271,96.944z M133.452,96.859c0-1.964-1.08-2.882-2.609-2.882
	c-1.539,0-2.805,1.139-2.805,3.034c0,1.777,0.857,2.891,2.609,2.891C132.202,99.902,133.452,98.755,133.452,96.859z"/>
<path fill="#FFFFFF" d="M140.431,95.261c-0.459-0.178-0.986-0.289-1.521-0.289c-1.131,0-1.947,0.714-1.947,1.998
	c0,1.216,0.664,1.93,1.828,1.93c0.271,0,0.51-0.034,0.73-0.103V96.8h1.105v2.736c-0.57,0.229-1.275,0.357-1.963,0.357
	c-1.82,0-2.898-1.071-2.898-2.822c0-1.802,1.223-3.085,3.213-3.085c0.568,0,1.129,0.102,1.623,0.246L140.431,95.261z"/>
<path fill="#FFFFFF" d="M146.813,99.809l-1.684-2.898c-0.246-0.434-0.449-0.858-0.619-1.232c0.033,0.493,0.051,1.394,0.051,2.082
	v2.049h-1.072v-5.737h1.438l1.598,2.736c0.264,0.442,0.494,0.918,0.705,1.352c-0.041-0.577-0.059-1.598-0.059-2.303v-1.785h1.07
	v5.737H146.813z"/>
<path fill="#FFFFFF" d="M151.292,99.809v-5.737h3.119v0.926h-2.016v1.411h1.914v0.901h-1.914v1.556h2.016v0.943H151.292z"/>
</svg>
