<svg xmlns="http://www.w3.org/2000/svg" width="184.814" height="56" viewBox="0 0 184.814 56">
  <path id="logo-epitech-digital" d="M-2117.05-271l-4.838-.013v-1.844l.948,0c4.318.01,5.1-.7,5.1-3.682V-294.47c0-2.443,2.429-4.29,5.714-4.53-3.285-.237-5.714-2.084-5.714-4.526v-17.931c0-2.987-.865-3.7-5.1-3.686l-.948,0v-1.851l4.838-.009c4.327-.013,6.578,1.352,6.578,3.675v20.1c0,2.442,2.169,4.112,5.285,4.229a7.639,7.639,0,0,0-1.991.362c-2.076.654-3.294,1.965-3.294,3.874v20.086c0,2.316-2.225,3.679-6.5,3.679Zm-167.666-3.678v-20.086c0-1.91-1.218-3.219-3.294-3.874A7.639,7.639,0,0,0-2290-299c3.117-.117,5.285-1.786,5.285-4.229v-20.1c0-2.323,2.252-3.688,6.578-3.675l4.84.009v1.851l-.95,0c-4.234-.012-5.1.7-5.1,3.686v17.931c0,2.443-2.428,4.29-5.713,4.526,3.285.239,5.713,2.086,5.713,4.53v17.934c0,2.983.782,3.691,5.1,3.682l.95,0v1.844l-4.84.013h-.076C-2282.491-271-2284.716-272.362-2284.716-274.678Zm55.942-9.23v-.059c0-6.014,4.745-10.73,11.179-10.73a12.147,12.147,0,0,1,8.42,3.006l-3.38,4.039a7.345,7.345,0,0,0-5.011-1.946,5.434,5.434,0,0,0-5.307,5.659v.059a5.465,5.465,0,0,0,5.633,5.719,5.9,5.9,0,0,0,3.321-.855v-2.506h-4.092v-4.186h9.547v9.286a14.085,14.085,0,0,1-9.014,3.184C-2223.94-273.237-2228.773-277.66-2228.773-283.908Zm83.5,10.258v-20.634h5.752v15.622h10.05v5.012Zm-10.637,0-1.512-3.685h-8.006l-1.483,3.685h-6.049l8.836-20.782h5.544l8.835,20.782Zm-7.828-8.136h4.656l-2.313-5.866Zm-21.846,8.136v-15.623h-6.226v-5.01h18.2v5.01h-6.227v15.623Zm-17.1,0v-20.634h5.781v20.634Zm-37.408,0v-20.634h5.781v20.634Zm-25.254,0v-20.634h8c7.412,0,11.711,4.244,11.711,10.2v.059c0,5.954-4.358,10.377-11.829,10.377Zm5.751-5.07h2.342c3.439,0,5.722-1.886,5.722-5.218V-284c0-3.3-2.283-5.218-5.722-5.218h-2.342Zm17.217-23.433v-6.375a7.1,7.1,0,0,1,1.485-4.686,5.946,5.946,0,0,1,4.935-2.09h6.654a1.706,1.706,0,0,0,1.439-.656,2.194,2.194,0,0,0,.482-1.468,2.291,2.291,0,0,0-.482-1.495,1.637,1.637,0,0,0-1.439-.7l-13.073-.014v-5.128l14,.019a5.987,5.987,0,0,1,4.905,2.277,7.83,7.83,0,0,1,1.665,5.083,8,8,0,0,1-1.628,5.046,6.071,6.071,0,0,1-4.942,2.27l-5.252,0a3.046,3.046,0,0,0-2.849,1.353,3.86,3.86,0,0,0-.6,2.269l0,5.986-5.3.008Zm22.652-22.55,5.41.011v24.18l-5.41.011Zm12.347,5.124-5.471,0v-5.106l16.29.019v5.1l-5.492,0v19.042l-5.327.007Zm43.506,18.993a7.613,7.613,0,0,1-6.662-3.684,14.174,14.174,0,0,1-2.211-8.131,14.925,14.925,0,0,1,2.249-8.42,7.562,7.562,0,0,1,6.651-3.8l11.752.019v5.068l-10.879-.011a3.361,3.361,0,0,0-3.054,2.068,9.589,9.589,0,0,0-1.016,4.638,10.507,10.507,0,0,0,1.016,4.828,3.421,3.421,0,0,0,3.054,2.207l10.879-.011v5.214l-11.752.014Zm-99.913-2.27a7.9,7.9,0,0,1-1.67-5.1,9.563,9.563,0,0,1,.331-2.495,7.443,7.443,0,0,1,1.084-2.2,7.1,7.1,0,0,1-1.039-2.24,8.062,8.062,0,0,1-.376-2.5,7.879,7.879,0,0,1,1.67-5.068,6.058,6.058,0,0,1,4.988-2.3l13.987.019v5.124l-13.091-.008a1.731,1.731,0,0,0-1.416.655,2.5,2.5,0,0,0-.489,1.541,2.308,2.308,0,0,0,.489,1.5,1.652,1.652,0,0,0,1.416.624h13.091v5.24l-13.836,0a1.734,1.734,0,0,0-.858.845,2.35,2.35,0,0,0-.3,1.249,2.3,2.3,0,0,0,.489,1.5,1.755,1.755,0,0,0,1.416.624l13.091-.015v5.239l-13.987.019A6.151,6.151,0,0,1-2263.788-302.857Zm113.866-21.742,5.32.008v9.328l9.57.008v-9.32l5.3,0v23.937l-5.3.008v-9.467h-9.57v9.481l-5.32,0Zm-38.43,23.9a5.99,5.99,0,0,1-4.877-2.248,7.844,7.844,0,0,1-1.647-5.053,9.421,9.421,0,0,1,.331-2.476,7.636,7.636,0,0,1,1.061-2.184,7.429,7.429,0,0,1-1.03-2.215,8.4,8.4,0,0,1-.361-2.48,7.832,7.832,0,0,1,1.647-5.023,5.939,5.939,0,0,1,4.89-2.285l13.762.022v5.083l-12.874-.008a1.706,1.706,0,0,0-1.392.647,2.457,2.457,0,0,0-.481,1.53,2.284,2.284,0,0,0,.481,1.491,1.623,1.623,0,0,0,1.392.614l12.874,0v5.2h-13.611a1.694,1.694,0,0,0-.835.838,2.3,2.3,0,0,0-.3,1.234,2.254,2.254,0,0,0,.481,1.489,1.7,1.7,0,0,0,1.392.621l12.874-.011v5.191l-13.762.019Zm60.023-3.136a2.908,2.908,0,0,1,2.916-2.9,2.908,2.908,0,0,1,2.917,2.9,2.908,2.908,0,0,1-2.917,2.9A2.908,2.908,0,0,1-2128.329-303.831Z" transform="translate(2290 327)" fill="#fff"/>
</svg>
